<?xml version="1.0" encoding="UTF-8" standalone="no"?>
<!-- Created with Inkscape (http://www.inkscape.org/) -->

<svg
   xmlns:dc="http://purl.org/dc/elements/1.1/"
   xmlns:cc="http://creativecommons.org/ns#"
   xmlns:rdf="http://www.w3.org/1999/02/22-rdf-syntax-ns#"
   xmlns:svg="http://www.w3.org/2000/svg"
   xmlns="http://www.w3.org/2000/svg"
   xmlns:sodipodi="http://sodipodi.sourceforge.net/DTD/sodipodi-0.dtd"
   xmlns:inkscape="http://www.inkscape.org/namespaces/inkscape"
   id="svg2"
   version="1.1"
   inkscape:version="0.91 r13725"
   width="473.75"
   height="215"
   xml:space="preserve"
   sodipodi:docname="ParserPipeline.svg"><metadata
     id="metadata8"><rdf:RDF><cc:Work
         rdf:about=""><dc:format>image/svg+xml</dc:format><dc:type
           rdf:resource="http://purl.org/dc/dcmitype/StillImage" /><dc:title /></cc:Work></rdf:RDF></metadata><defs
     id="defs6" /><sodipodi:namedview
     pagecolor="#ffffff"
     bordercolor="#666666"
     borderopacity="1"
     objecttolerance="10"
     gridtolerance="10"
     guidetolerance="10"
     inkscape:pageopacity="0"
     inkscape:pageshadow="2"
     inkscape:window-width="1920"
     inkscape:window-height="1148"
     id="namedview4"
     showgrid="false"
     inkscape:zoom="18.913895"
     inkscape:cx="362.12414"
     inkscape:cy="178.50589"
     inkscape:window-x="0"
     inkscape:window-y="23"
     inkscape:window-maximized="1"
     inkscape:current-layer="g10" /><g
     id="g10"
     inkscape:groupmode="layer"
     inkscape:label="ink_ext_XXXXXX"
     transform="matrix(1.25,0,0,-1.25,0,215)"><g
       id="g3411"><path
         d="m 40.102,134.594 54,0 0,36 -54,0 0,-36 z"
         style="fill:none;stroke:#000000;stroke-width:1;stroke-linecap:butt;stroke-linejoin:miter;stroke-miterlimit:1;stroke-opacity:1;stroke-dasharray:none"
         id="path14"
         inkscape:connector-curvature="0" /><path
         d="m 63.4609,158.754 -0.391,0 c -0.7027,-1.5 -1.3121,-1.844 -3.3121,-1.844 l -0.375,0 c -0.6879,0 -1.2656,0.078 -1.375,0.172 -0.0629,0.047 -0.0937,0.188 -0.0937,0.438 l 0,3.453 2.1558,0 c 1.1571,0 1.3602,-0.188 1.5473,-1.344 l 0.3129,0 0,3.25 -0.3129,0 c -0.1094,-0.578 -0.1563,-0.781 -0.3121,-0.984 -0.1879,-0.235 -0.5781,-0.344 -1.2352,-0.344 l -2.1558,0 0,3.109 c 0,0.391 0.0781,0.469 0.4687,0.469 l 1.8902,0 c 1.579,0 1.8911,-0.203 2.125,-1.469 l 0.3442,0 -0.0313,2 -7.4379,0 0,-0.265 c 1.0321,-0.079 1.2192,-0.282 1.2192,-1.266 l 0,-6.203 c 0,-0.985 -0.2031,-1.188 -1.2192,-1.266 l 0,-0.265 7.5629,0 0.625,2.359 z"
         style="fill:#000000;fill-opacity:1;fill-rule:nonzero;stroke:none"
         id="path16"
         inkscape:connector-curvature="0" /><path
         d="m 67.4801,162.691 -1.4063,0 0,1.625 c 0,0.141 -0.0148,0.188 -0.0937,0.188 -0.109,-0.125 -0.1871,-0.25 -0.2813,-0.391 -0.5308,-0.781 -1.1398,-1.453 -1.359,-1.5 -0.1558,-0.093 -0.2347,-0.203 -0.2347,-0.265 0,-0.047 0.016,-0.078 0.0469,-0.094 l 0.75,0 0,-4.219 c 0,-1.172 0.4218,-1.781 1.2351,-1.781 0.6867,0 1.218,0.344 1.6867,1.062 l -0.1867,0.157 c -0.282,-0.344 -0.532,-0.485 -0.8281,-0.485 -0.532,0 -0.7352,0.375 -0.7352,1.25 l 0,4.016 1.4063,0 0,0.437 z"
         style="fill:#000000;fill-opacity:1;fill-rule:nonzero;stroke:none"
         id="path18"
         inkscape:connector-curvature="0" /><path
         d="m 70.277,161.191 c 0.5781,0.657 1,0.891 1.5468,0.891 0.7032,0 1.0473,-0.5 1.0473,-1.484 l 0,-2.782 c 0,-0.953 -0.141,-1.125 -0.9531,-1.218 l 0,-0.203 2.9691,0 0,0.203 c -0.75,0.14 -0.8281,0.265 -0.8281,1.218 l 0,2.797 c 0,1.469 -0.5942,2.219 -1.7352,2.219 -0.8117,0 -1.4058,-0.328 -2.0468,-1.172 l 0,4.25 -0.0782,0.047 c -0.4687,-0.172 -0.8277,-0.281 -1.609,-0.5 l -0.375,-0.109 0,-0.235 c 0.0622,0.016 0.0942,0.016 0.1723,0.016 0.593,0 0.7027,-0.109 0.7027,-0.719 l 0,-6.594 c 0,-0.968 -0.0777,-1.093 -0.891,-1.218 l 0,-0.203 3.0313,0 0,0.203 c -0.8121,0.093 -0.9531,0.265 -0.9531,1.218 l 0,3.375 z"
         style="fill:#000000;fill-opacity:1;fill-rule:nonzero;stroke:none"
         id="path20"
         inkscape:connector-curvature="0" /><path
         d="m 69.1641,151.863 c -0.7813,0 -1.359,-0.25 -1.875,-0.734 -0.8121,-0.781 -1.3442,-2.391 -1.3442,-4.031 0,-1.532 0.4531,-3.157 1.1102,-3.953 0.5148,-0.61 1.234,-0.954 2.0469,-0.954 0.7179,0 1.3121,0.25 1.8121,0.735 0.8129,0.765 1.3437,2.39 1.3437,4.094 0,2.859 -1.2656,4.843 -3.0937,4.843 z m -0.0469,-0.375 c 1.1719,0 1.7969,-1.578 1.7969,-4.5 0,-2.922 -0.609,-4.422 -1.8121,-4.422 -1.204,0 -1.8129,1.5 -1.8129,4.407 0,2.968 0.625,4.515 1.8281,4.515 z"
         style="fill:#ff0000;fill-opacity:1;fill-rule:nonzero;stroke:none"
         id="path22"
         inkscape:connector-curvature="0" /><path
         d="m 130.102,134.594 65,0 0,36 -65,0 0,-36 z"
         style="fill:none;stroke:#000000;stroke-width:1;stroke-linecap:butt;stroke-linejoin:miter;stroke-miterlimit:1;stroke-opacity:1;stroke-dasharray:none"
         id="path24"
         inkscape:connector-curvature="0" /><path
         d="m 147.867,165.66 -2.875,0 0,-0.265 c 0.766,-0.047 1.016,-0.188 1.016,-0.594 0,-0.219 -0.094,-0.594 -0.266,-1.016 l -2.047,-5.14 -2.125,4.734 c -0.453,1.031 -0.578,1.344 -0.578,1.562 0,0.266 0.203,0.407 0.656,0.422 0.047,0 0.204,0.016 0.407,0.032 l 0,0.265 -3.735,0 0,-0.265 c 0.688,-0.032 0.891,-0.219 1.485,-1.469 l 3.453,-7.688 0.203,0 3.109,7.86 c 0.469,1.109 0.625,1.25 1.297,1.297 l 0,0.265 z"
         style="fill:#000000;fill-opacity:1;fill-rule:nonzero;stroke:none"
         id="path26"
         inkscape:connector-curvature="0" /><path
         d="m 156.16,158.832 c -0.234,-0.531 -0.422,-0.859 -0.64,-1.094 -0.485,-0.547 -1.25,-0.797 -2.422,-0.797 l -0.938,0 c -1.015,0 -1.203,0.079 -1.203,0.579 l 0,6.609 c 0,1 0.203,1.203 1.297,1.266 l 0,0.265 -3.938,0 0,-0.265 c 1.032,-0.079 1.219,-0.282 1.219,-1.266 l 0,-6.203 c 0,-0.985 -0.203,-1.188 -1.219,-1.266 l 0,-0.265 7.532,0 0.672,2.437 -0.36,0 z"
         style="fill:#000000;fill-opacity:1;fill-rule:nonzero;stroke:none"
         id="path28"
         inkscape:connector-curvature="0" /><path
         d="m 166.527,156.66 c -0.64,0.047 -0.781,0.188 -1.265,1.219 l -3.485,7.953 -0.281,0 -2.906,-6.875 c -0.906,-2.047 -1.078,-2.266 -1.75,-2.297 l 0,-0.265 2.781,0 0,0.265 c -0.672,0 -0.953,0.188 -0.953,0.578 0,0.172 0.047,0.36 0.109,0.547 l 0.641,1.641 3.672,0 0.578,-1.344 c 0.172,-0.391 0.266,-0.75 0.266,-0.953 0,-0.344 -0.235,-0.453 -0.985,-0.469 l 0,-0.265 3.578,0 0,0.265 z m -6.859,3.328 1.609,3.86 1.625,-3.86 -3.234,0 z"
         style="fill:#000000;fill-opacity:1;fill-rule:nonzero;stroke:none"
         id="path30"
         inkscape:connector-curvature="0" /><path
         d="m 175.242,156.238 0,7.36 c 0,0.843 0.141,1.359 0.406,1.547 0.204,0.14 0.391,0.203 0.922,0.25 l 0,0.265 -3.281,0 0,-0.265 c 0.531,-0.047 0.734,-0.094 0.938,-0.219 0.281,-0.203 0.406,-0.703 0.406,-1.578 l 0,-4.719 -5.391,6.781 -2.39,0 0,-0.265 c 0.593,0 0.796,-0.11 1.359,-0.766 l 0,-6.172 c 0,-1.453 -0.203,-1.719 -1.359,-1.797 l 0,-0.265 3.281,0 0,0.265 c -1.078,0.063 -1.313,0.375 -1.313,1.797 l 0,5.484 6.188,-7.703 0.234,0 z"
         style="fill:#000000;fill-opacity:1;fill-rule:nonzero;stroke:none"
         id="path32"
         inkscape:connector-curvature="0" /><path
         d="m 180.289,165.863 c -0.781,0 -1.359,-0.25 -1.875,-0.734 -0.812,-0.781 -1.344,-2.391 -1.344,-4.031 0,-1.532 0.453,-3.157 1.11,-3.953 0.515,-0.61 1.234,-0.954 2.047,-0.954 0.718,0 1.312,0.25 1.812,0.735 0.813,0.765 1.344,2.39 1.344,4.094 0,2.859 -1.266,4.843 -3.094,4.843 z m -0.047,-0.375 c 1.172,0 1.797,-1.578 1.797,-4.5 0,-2.922 -0.609,-4.422 -1.812,-4.422 -1.204,0 -1.813,1.5 -1.813,4.407 0,2.968 0.625,4.515 1.828,4.515 z"
         style="fill:#000000;fill-opacity:1;fill-rule:nonzero;stroke:none"
         id="path34"
         inkscape:connector-curvature="0" /><path
         d="m 165.18,151.863 -2.532,-1.281 0,-0.187 c 0.172,0.062 0.329,0.125 0.391,0.14 0.25,0.11 0.484,0.156 0.625,0.156 0.297,0 0.422,-0.203 0.422,-0.656 l 0,-6.344 c 0,-0.453 -0.109,-0.781 -0.344,-0.906 -0.203,-0.125 -0.406,-0.172 -0.984,-0.187 l 0,-0.203 3.859,0 0,0.203 c -1.109,0.015 -1.328,0.156 -1.328,0.828 l 0,8.406 -0.109,0.031 z"
         style="fill:#00ff00;fill-opacity:1;fill-rule:nonzero;stroke:none"
         id="path36"
         inkscape:connector-curvature="0" /><path
         d="m 94.141,152.594 25.789,0"
         style="fill:none;stroke:#000000;stroke-width:1;stroke-linecap:butt;stroke-linejoin:miter;stroke-miterlimit:1;stroke-opacity:1;stroke-dasharray:none"
         id="path38"
         inkscape:connector-curvature="0" /><path
         d="m 120.051,156.094 9.988,-3.5 -10,-3.5"
         style="fill:#000000;fill-opacity:1;fill-rule:nonzero;stroke:none"
         id="path40"
         inkscape:connector-curvature="0" /><path
         d="m 120.051,156.094 9.988,-3.5 -10,-3.5 0.012,7 z"
         style="fill:none;stroke:#000000;stroke-width:1;stroke-linecap:butt;stroke-linejoin:miter;stroke-miterlimit:1;stroke-opacity:1;stroke-dasharray:none"
         id="path42"
         inkscape:connector-curvature="0" /><path
         d="m 195.199,152.594 100.92032,0"
         style="fill:none;stroke:#000000;stroke-width:1;stroke-linecap:butt;stroke-linejoin:miter;stroke-miterlimit:1;stroke-dasharray:none;stroke-opacity:1"
         id="path58"
         inkscape:connector-curvature="0" /><path
         d="m 37.7891,71.8711 54,0 0,36 -54,0 0,-36 z"
         style="fill:none;stroke:#000000;stroke-width:1;stroke-linecap:butt;stroke-linejoin:miter;stroke-miterlimit:1;stroke-opacity:1;stroke-dasharray:none"
         id="path64"
         inkscape:connector-curvature="0" /><path
         d="m 51.898,95.2031 c 0,-1.0621 -0.1871,-1.2191 -1.3589,-1.2652 l 0,-0.266 4.1558,0 0,0.266 c -1.1398,0.0461 -1.375,0.234 -1.375,1.2652 l 0,6.2029 c 0,1.032 0.2031,1.219 1.375,1.266 l 0,0.266 -4.1558,0 0,-0.266 c 1.1879,-0.063 1.3589,-0.219 1.3589,-1.266 l 0,-6.2029 z"
         style="fill:#000000;fill-opacity:1;fill-rule:nonzero;stroke:none"
         id="path66"
         inkscape:connector-curvature="0" /><path
         d="m 57.5898,97.75 c 0.359,-0.0309 0.609,-0.0469 0.9692,-0.0469 1.093,0 1.843,0.141 2.4531,0.4848 0.8277,0.4371 1.343,1.2961 1.343,2.2181 0,0.594 -0.2031,1.125 -0.5781,1.532 -0.5622,0.609 -1.7809,1 -3.093,1 l -3.7039,0 0,-0.266 c 1.0469,-0.11 1.1879,-0.25 1.1879,-1.266 l 0,-6.047 c 0,-1.1871 -0.125,-1.3281 -1.1879,-1.4211 l 0,-0.266 3.9219,0 0,0.266 c -1.109,0.0461 -1.3122,0.234 -1.3122,1.2652 l 0,2.5469 z m 0,4.203 c 0,0.375 0.0942,0.469 0.4692,0.469 1.8898,0 2.7648,-0.656 2.7648,-2.094 0,-1.3589 -0.8277,-2.062 -2.4367,-2.062 -0.282,0 -0.4691,0.0149 -0.7973,0.0461 l 0,3.6409 z"
         style="fill:#000000;fill-opacity:1;fill-rule:nonzero;stroke:none"
         id="path68"
         inkscape:connector-curvature="0" /><path
         d="m 69.027,99.9691 -1.9372,0 0,-0.2031 c 0.4532,-0.0469 0.6563,-0.1879 0.6563,-0.4539 0,-0.1402 -0.0313,-0.2812 -0.0781,-0.4211 l -1.391,-3.625 -1.4372,3.593 c -0.0777,0.1879 -0.125,0.391 -0.125,0.516 0,0.25 0.1563,0.3441 0.6563,0.391 l 0,0.2031 -2.75,0 0,-0.2031 c 0.5309,-0.032 0.625,-0.1719 1.2809,-1.6101 l 1.6718,-4.0149 c 0.0313,-0.0941 0.0782,-0.1879 0.1102,-0.2969 0.093,-0.25 0.1711,-0.375 0.25,-0.375 0.093,0 0.1871,0.1868 0.3898,0.7028 l 1.7973,4.5 c 0.4059,0.9531 0.5,1.0472 0.9059,1.0941 l 0,0.2031 z"
         style="fill:#000000;fill-opacity:1;fill-rule:nonzero;stroke:none"
         id="path70"
         inkscape:connector-curvature="0" /><path
         d="m 75.773,96.9059 -1.421,0 0,6.2351 -0.625,0 -4.3911,-6.2351 0,-0.8899 3.9371,0 0,-2.3441 1.079,0 0,2.3441 1.421,0 0,0.8899 z m -2.5152,0 -3.3598,0 3.3598,4.7971 0,-4.7971 z"
         style="fill:#000000;fill-opacity:1;fill-rule:nonzero;stroke:none"
         id="path72"
         inkscape:connector-curvature="0" /><path
         d="m 69.9449,81.5941 -0.1871,0.0618 C 69.2422,80.859 69.0551,80.734 68.4301,80.734 l -3.3442,0 2.3442,2.4691 c 1.25,1.2969 1.7969,2.359 1.7969,3.4528 0,1.4062 -1.1411,2.4851 -2.5942,2.4851 -0.7656,0 -1.5,-0.3129 -2.0156,-0.875 -0.4531,-0.4691 -0.6563,-0.9219 -0.8902,-1.9219 l 0.296,-0.0632 c 0.5469,1.375 1.0629,1.8132 2.0321,1.8132 1.1719,0 1.9679,-0.7972 1.9679,-1.9691 0,-1.0941 -0.6402,-2.391 -1.8281,-3.641 l -2.484,-2.6399 0,-0.1722 5.4532,0 0.7808,1.9222 z"
         style="fill:#0000ff;fill-opacity:1;fill-rule:nonzero;stroke:none"
         id="path74"
         inkscape:connector-curvature="0" /><path
         d="m 127.789,71.8711 54,0 0,36 -54,0 0,-36 z"
         style="fill:none;stroke:#000000;stroke-width:1;stroke-linecap:butt;stroke-linejoin:miter;stroke-miterlimit:1;stroke-opacity:1;stroke-dasharray:none"
         id="path76"
         inkscape:connector-curvature="0" /><path
         d="m 141.898,95.2031 c 0,-1.0621 -0.187,-1.2191 -1.359,-1.2652 l 0,-0.266 4.156,0 0,0.266 c -1.14,0.0461 -1.375,0.234 -1.375,1.2652 l 0,6.2029 c 0,1.032 0.203,1.219 1.375,1.266 l 0,0.266 -4.156,0 0,-0.266 c 1.188,-0.063 1.359,-0.219 1.359,-1.266 l 0,-6.2029 z"
         style="fill:#000000;fill-opacity:1;fill-rule:nonzero;stroke:none"
         id="path78"
         inkscape:connector-curvature="0" /><path
         d="m 147.59,97.75 c 0.359,-0.0309 0.609,-0.0469 0.969,-0.0469 1.093,0 1.843,0.141 2.453,0.4848 0.828,0.4371 1.343,1.2961 1.343,2.2181 0,0.594 -0.203,1.125 -0.578,1.532 -0.562,0.609 -1.781,1 -3.093,1 l -3.704,0 0,-0.266 c 1.047,-0.11 1.188,-0.25 1.188,-1.266 l 0,-6.047 c 0,-1.1871 -0.125,-1.3281 -1.188,-1.4211 l 0,-0.266 3.922,0 0,0.266 c -1.109,0.0461 -1.312,0.234 -1.312,1.2652 l 0,2.5469 z m 0,4.203 c 0,0.375 0.094,0.469 0.469,0.469 1.89,0 2.765,-0.656 2.765,-2.094 0,-1.3589 -0.828,-2.062 -2.437,-2.062 -0.282,0 -0.469,0.0149 -0.797,0.0461 l 0,3.6409 z"
         style="fill:#000000;fill-opacity:1;fill-rule:nonzero;stroke:none"
         id="path80"
         inkscape:connector-curvature="0" /><path
         d="m 159.027,99.9691 -1.937,0 0,-0.2031 c 0.453,-0.0469 0.656,-0.1879 0.656,-0.4539 0,-0.1402 -0.031,-0.2812 -0.078,-0.4211 l -1.391,-3.625 -1.437,3.593 c -0.078,0.1879 -0.125,0.391 -0.125,0.516 0,0.25 0.156,0.3441 0.656,0.391 l 0,0.2031 -2.75,0 0,-0.2031 c 0.531,-0.032 0.625,-0.1719 1.281,-1.6101 l 1.672,-4.0149 c 0.031,-0.0941 0.078,-0.1879 0.11,-0.2969 0.093,-0.25 0.171,-0.375 0.25,-0.375 0.093,0 0.187,0.1868 0.39,0.7028 l 1.797,4.5 c 0.406,0.9531 0.5,1.0472 0.906,1.0941 l 0,0.2031 z"
         style="fill:#000000;fill-opacity:1;fill-rule:nonzero;stroke:none"
         id="path82"
         inkscape:connector-curvature="0" /><path
         d="m 165.414,103.25 c -1.609,-0.141 -2.406,-0.406 -3.437,-1.125 -1.516,-1.078 -2.344,-2.6719 -2.344,-4.5469 0,-1.2191 0.39,-2.4531 0.984,-3.1562 0.531,-0.6098 1.297,-0.9528 2.156,-0.9528 1.735,0 2.938,1.343 2.938,3.2649 0,1.7969 -1.016,2.9219 -2.625,2.9219 -0.625,0 -0.906,-0.0938 -1.797,-0.625 0.375,2.1101 1.953,3.6251 4.141,4.0001 l -0.016,0.219 z m -2.859,-4.234 c 1.203,0 1.906,-1 1.906,-2.75 0,-1.5469 -0.547,-2.391 -1.531,-2.391 -1.235,0 -1.985,1.3129 -1.985,3.484 0,0.7031 0.11,1.0941 0.391,1.3129 0.297,0.2191 0.719,0.3441 1.219,0.3441 z"
         style="fill:#000000;fill-opacity:1;fill-rule:nonzero;stroke:none"
         id="path84"
         inkscape:connector-curvature="0" /><path
         d="m 159.945,81.5941 -0.187,0.0618 C 159.242,80.859 159.055,80.734 158.43,80.734 l -3.344,0 2.344,2.4691 c 1.25,1.2969 1.797,2.359 1.797,3.4528 0,1.4062 -1.141,2.4851 -2.594,2.4851 -0.766,0 -1.5,-0.3129 -2.016,-0.875 -0.453,-0.4691 -0.656,-0.9219 -0.89,-1.9219 l 0.296,-0.0632 c 0.547,1.375 1.063,1.8132 2.032,1.8132 1.172,0 1.968,-0.7972 1.968,-1.9691 0,-1.0941 -0.64,-2.391 -1.828,-3.641 l -2.484,-2.6399 0,-0.1722 5.453,0 0.781,1.9222 z"
         style="fill:#0000ff;fill-opacity:1;fill-rule:nonzero;stroke:none"
         id="path86"
         inkscape:connector-curvature="0" /><path
         d="m 217.789,71.8711 54,0 0,36 -54,0 0,-36 z"
         style="fill:none;stroke:#000000;stroke-width:1;stroke-linecap:butt;stroke-linejoin:miter;stroke-miterlimit:1;stroke-opacity:1;stroke-dasharray:none"
         id="path88"
         inkscape:connector-curvature="0" /><path
         d="m 233.852,102.359 0,-7 c 0,-1.2031 -0.157,-1.343 -1.329,-1.4211 l 0,-0.266 4.094,0 0,0.266 c -1.14,0.0621 -1.344,0.234 -1.344,1.2652 l 0,7.1559 0.75,0 c 1.61,0 1.907,-0.265 2.235,-1.797 l 0.328,0 -0.078,2.376 -7.891,0 -0.094,-2.376 0.344,0 c 0.328,1.516 0.656,1.797 2.219,1.797 l 0.766,0 z"
         style="fill:#000000;fill-opacity:1;fill-rule:nonzero;stroke:none"
         id="path90"
         inkscape:connector-curvature="0" /><path
         d="m 247.484,99.9691 -0.14,3.1719 -0.282,0 c -0.093,-0.297 -0.312,-0.469 -0.593,-0.469 -0.125,0 -0.328,0.047 -0.547,0.125 -0.688,0.234 -1.391,0.344 -2.047,0.344 -1.141,0 -2.313,-0.438 -3.172,-1.203 -0.984,-0.876 -1.515,-2.172 -1.515,-3.7189 0,-1.2972 0.421,-2.5 1.14,-3.2972 0.828,-0.9059 2.125,-1.4528 3.516,-1.4528 1.578,0 2.968,0.6559 3.812,1.7809 l -0.25,0.25 c -1.031,-0.984 -1.953,-1.4059 -3.125,-1.4059 -0.875,0 -1.656,0.2809 -2.265,0.8118 -0.766,0.6882 -1.204,1.9382 -1.204,3.5 0,2.5321 1.297,4.1721 3.329,4.1721 0.797,0 1.531,-0.297 2.093,-0.859 0.438,-0.438 0.657,-0.844 0.922,-1.7499 l 0.328,0 z"
         style="fill:#000000;fill-opacity:1;fill-rule:nonzero;stroke:none"
         id="path92"
         inkscape:connector-curvature="0" /><path
         d="m 250.918,97.75 c 0.359,-0.0309 0.609,-0.0469 0.969,-0.0469 1.093,0 1.843,0.141 2.453,0.4848 0.828,0.4371 1.344,1.2961 1.344,2.2181 0,0.594 -0.204,1.125 -0.579,1.532 -0.562,0.609 -1.781,1 -3.093,1 l -3.703,0 0,-0.266 c 1.046,-0.11 1.187,-0.25 1.187,-1.266 l 0,-6.047 c 0,-1.1871 -0.125,-1.3281 -1.187,-1.4211 l 0,-0.266 3.921,0 0,0.266 c -1.109,0.0461 -1.312,0.234 -1.312,1.2652 l 0,2.5469 z m 0,4.203 c 0,0.375 0.094,0.469 0.469,0.469 1.89,0 2.765,-0.656 2.765,-2.094 0,-1.3589 -0.828,-2.062 -2.437,-2.062 -0.281,0 -0.469,0.0149 -0.797,0.0461 l 0,3.6409 z"
         style="fill:#000000;fill-opacity:1;fill-rule:nonzero;stroke:none"
         id="path94"
         inkscape:connector-curvature="0" /><path
         d="m 245.43,84.2969 c 0.828,0 1.156,-0.0309 1.484,-0.1559 0.875,-0.3129 1.422,-1.1101 1.422,-2.0789 0,-1.1711 -0.813,-2.0781 -1.844,-2.0781 -0.375,0 -0.656,0.0941 -1.172,0.4219 -0.422,0.266 -0.656,0.3601 -0.89,0.3601 -0.328,0 -0.532,-0.2039 -0.532,-0.4851 0,-0.5 0.594,-0.8118 1.579,-0.8118 1.078,0 2.187,0.375 2.843,0.9368 0.657,0.5781 1.016,1.391 1.016,2.3281 0,0.7191 -0.219,1.375 -0.625,1.8129 -0.281,0.3121 -0.547,0.4691 -1.172,0.734 0.969,0.657 1.328,1.1882 1.328,1.9382 0,1.1399 -0.906,1.9219 -2.187,1.9219 -0.703,0 -1.313,-0.25 -1.828,-0.6879 -0.422,-0.375 -0.625,-0.75 -0.938,-1.5781 l 0.219,-0.0629 c 0.562,1.016 1.203,1.4848 2.078,1.4848 0.922,0 1.547,-0.609 1.547,-1.5 0,-0.5 -0.219,-1 -0.563,-1.359 -0.422,-0.4219 -0.812,-0.6258 -1.765,-0.9688 l 0,-0.1722 z"
         style="fill:#47007f;fill-opacity:1;fill-rule:nonzero;stroke:none"
         id="path96"
         inkscape:connector-curvature="0" /><path
         d="m 182.188,89.8711 25.421,0"
         style="fill:none;stroke:#000000;stroke-width:1;stroke-linecap:butt;stroke-linejoin:miter;stroke-miterlimit:1;stroke-opacity:1;stroke-dasharray:none"
         id="path98"
         inkscape:connector-curvature="0" /><path
         d="m 207.707,93.3711 10,-3.5 -10,-3.5"
         style="fill:#000000;fill-opacity:1;fill-rule:nonzero;stroke:none"
         id="path100"
         inkscape:connector-curvature="0" /><path
         d="m 207.707,93.3711 10,-3.5 -10,-3.5 0,7 z"
         style="fill:none;stroke:#000000;stroke-width:1;stroke-linecap:butt;stroke-linejoin:miter;stroke-miterlimit:1;stroke-opacity:1;stroke-dasharray:none"
         id="path102"
         inkscape:connector-curvature="0" /><path
         d="m 92.1879,89.8711 25.4211,0"
         style="fill:none;stroke:#000000;stroke-width:1;stroke-linecap:butt;stroke-linejoin:miter;stroke-miterlimit:1;stroke-opacity:1;stroke-dasharray:none"
         id="path104"
         inkscape:connector-curvature="0" /><path
         d="m 117.707,93.3711 10,-3.5 -10,-3.5"
         style="fill:#000000;fill-opacity:1;fill-rule:nonzero;stroke:none"
         id="path106"
         inkscape:connector-curvature="0" /><path
         d="m 117.707,93.3711 10,-3.5 -10,-3.5 0,7 z"
         style="fill:none;stroke:#000000;stroke-width:1;stroke-linecap:butt;stroke-linejoin:miter;stroke-miterlimit:1;stroke-opacity:1;stroke-dasharray:none"
         id="path108"
         inkscape:connector-curvature="0" /><path
         d="m 307.789,71.8711 54,0 0,36 -54,0 0,-36 z"
         style="fill:none;stroke:#000000;stroke-width:1;stroke-linecap:butt;stroke-linejoin:miter;stroke-miterlimit:1;stroke-opacity:1;stroke-dasharray:none"
         id="path110"
         inkscape:connector-curvature="0" /><path
         d="m 327.836,100.875 c 0,1.437 0.172,1.656 1.328,1.797 l 0,0.266 -3.25,0 0,-0.266 c 1.094,-0.078 1.313,-0.391 1.313,-1.797 l 0,-3.766 c 0,-0.9531 -0.094,-1.484 -0.329,-1.9059 -0.375,-0.6722 -1.265,-1.109 -2.312,-1.109 -1,0 -1.688,0.3278 -2.063,0.984 -0.25,0.4528 -0.343,0.9688 -0.343,1.8598 l 0,4.4681 c 0,1.016 0.14,1.172 1.265,1.266 l 0,0.266 -3.953,0 0,-0.266 c 1.094,-0.078 1.25,-0.234 1.25,-1.266 l 0,-4.3591 c 0,-2.4219 1.141,-3.5778 3.516,-3.5778 1.531,0 2.578,0.5 3.125,1.4528 0.328,0.5781 0.453,1.234 0.453,2.3121 l 0,3.641 z"
         style="fill:#000000;fill-opacity:1;fill-rule:nonzero;stroke:none"
         id="path112"
         inkscape:connector-curvature="0" /><path
         d="m 330.723,95.2031 c 0,-1.0152 -0.172,-1.1871 -1.235,-1.2652 l 0,-0.266 3.985,0 c 1.625,0 3.093,0.4691 3.953,1.25 0.922,0.8281 1.437,2.0621 1.437,3.4222 0,1.2649 -0.422,2.3589 -1.187,3.1249 -0.953,0.969 -2.485,1.469 -4.406,1.469 l -3.782,0 0,-0.266 c 1.11,-0.094 1.235,-0.219 1.235,-1.266 l 0,-6.2029 z m 1.437,6.6719 c 0,0.437 0.141,0.547 0.719,0.547 1.203,0 2.109,-0.219 2.781,-0.703 1.094,-0.75 1.672,-1.953 1.672,-3.469 0,-1.6559 -0.578,-2.8281 -1.703,-3.484 -0.719,-0.407 -1.531,-0.5781 -2.75,-0.5781 -0.563,0 -0.719,0.1242 -0.719,0.5781 l 0,7.109 z"
         style="fill:#000000;fill-opacity:1;fill-rule:nonzero;stroke:none"
         id="path114"
         inkscape:connector-curvature="0" /><path
         d="m 342.082,97.75 c 0.359,-0.0309 0.609,-0.0469 0.969,-0.0469 1.094,0 1.844,0.141 2.453,0.4848 0.828,0.4371 1.344,1.2961 1.344,2.2181 0,0.594 -0.203,1.125 -0.578,1.532 -0.563,0.609 -1.782,1 -3.094,1 l -3.703,0 0,-0.266 c 1.047,-0.11 1.187,-0.25 1.187,-1.266 l 0,-6.047 c 0,-1.1871 -0.125,-1.3281 -1.187,-1.4211 l 0,-0.266 3.922,0 0,0.266 c -1.11,0.0461 -1.313,0.234 -1.313,1.2652 l 0,2.5469 z m 0,4.203 c 0,0.375 0.094,0.469 0.469,0.469 1.89,0 2.765,-0.656 2.765,-2.094 0,-1.3589 -0.828,-2.062 -2.437,-2.062 -0.281,0 -0.469,0.0149 -0.797,0.0461 l 0,3.6409 z"
         style="fill:#000000;fill-opacity:1;fill-rule:nonzero;stroke:none"
         id="path116"
         inkscape:connector-curvature="0" /><path
         d="m 335.43,84.2969 c 0.828,0 1.156,-0.0309 1.484,-0.1559 0.875,-0.3129 1.422,-1.1101 1.422,-2.0789 0,-1.1711 -0.813,-2.0781 -1.844,-2.0781 -0.375,0 -0.656,0.0941 -1.172,0.4219 -0.422,0.266 -0.656,0.3601 -0.89,0.3601 -0.328,0 -0.532,-0.2039 -0.532,-0.4851 0,-0.5 0.594,-0.8118 1.579,-0.8118 1.078,0 2.187,0.375 2.843,0.9368 0.657,0.5781 1.016,1.391 1.016,2.3281 0,0.7191 -0.219,1.375 -0.625,1.8129 -0.281,0.3121 -0.547,0.4691 -1.172,0.734 0.969,0.657 1.328,1.1882 1.328,1.9382 0,1.1399 -0.906,1.9219 -2.187,1.9219 -0.703,0 -1.313,-0.25 -1.828,-0.6879 -0.422,-0.375 -0.625,-0.75 -0.938,-1.5781 l 0.219,-0.0629 c 0.562,1.016 1.203,1.4848 2.078,1.4848 0.922,0 1.547,-0.609 1.547,-1.5 0,-0.5 -0.219,-1 -0.563,-1.359 -0.422,-0.4219 -0.812,-0.6258 -1.765,-0.9688 l 0,-0.1722 z"
         style="fill:#47007f;fill-opacity:1;fill-rule:nonzero;stroke:none"
         id="path118"
         inkscape:connector-curvature="0" /><path
         d="m 272.188,89.8711 25.421,0"
         style="fill:none;stroke:#000000;stroke-width:1;stroke-linecap:butt;stroke-linejoin:miter;stroke-miterlimit:1;stroke-opacity:1;stroke-dasharray:none"
         id="path120"
         inkscape:connector-curvature="0" /><path
         d="m 297.707,93.3711 10,-3.5 -10,-3.5"
         style="fill:#000000;fill-opacity:1;fill-rule:nonzero;stroke:none"
         id="path122"
         inkscape:connector-curvature="0" /><path
         d="m 297.707,93.3711 10,-3.5 -10,-3.5 0,7 z"
         style="fill:none;stroke:#000000;stroke-width:1;stroke-linecap:butt;stroke-linejoin:miter;stroke-miterlimit:1;stroke-opacity:1;stroke-dasharray:none"
         id="path124"
         inkscape:connector-curvature="0" /><path
         d="m 35.8551,1.48398 54,0 0,36 -54,0 0,-36 z"
         style="fill:none;stroke:#000000;stroke-width:1;stroke-linecap:butt;stroke-linejoin:miter;stroke-miterlimit:1;stroke-opacity:1;stroke-dasharray:none"
         id="path126"
         inkscape:connector-curvature="0" /><path
         d="m 45.9648,24.816 c 0,-1.0621 -0.1878,-1.218 -1.3597,-1.2648 l 0,-0.266 4.157,0 0,0.266 c -1.141,0.0468 -1.375,0.234 -1.375,1.2648 l 0,6.2039 c 0,1.0313 0.2027,1.218 1.375,1.2653 l 0,0.266 -4.157,0 0,-0.266 c 1.1879,-0.0622 1.3597,-0.2192 1.3597,-1.2653 l 0,-6.2039 z"
         style="fill:#000000;fill-opacity:1;fill-rule:nonzero;stroke:none"
         id="path128"
         inkscape:connector-curvature="0" /><path
         d="m 57.559,29.582 -0.141,3.1719 -0.2809,0 C 57.043,32.457 56.8238,32.2852 56.543,32.2852 c -0.125,0 -0.3282,0.0468 -0.5469,0.125 -0.6871,0.2347 -1.391,0.3437 -2.0473,0.3437 -1.1398,0 -2.3117,-0.4379 -3.1718,-1.2027 -0.984,-0.875 -1.5149,-2.1723 -1.5149,-3.7192 0,-1.2968 0.4219,-2.5 1.1399,-3.2968 0.8281,-0.9063 2.125,-1.4532 3.516,-1.4532 1.5781,0 2.9691,0.6559 3.8121,1.7809 l -0.25,0.25 c -1.0313,-0.984 -1.9531,-1.4059 -3.125,-1.4059 -0.875,0 -1.6563,0.2809 -2.2653,0.8129 -0.766,0.6871 -1.2027,1.9371 -1.2027,3.5 0,2.5313 1.2969,4.1711 3.3277,4.1711 0.7973,0 1.5313,-0.2961 2.0942,-0.859 0.4371,-0.4371 0.6558,-0.8441 0.9211,-1.75 l 0.3289,0 z"
         style="fill:#000000;fill-opacity:1;fill-rule:nonzero;stroke:none"
         id="path130"
         inkscape:connector-curvature="0" /><path
         d="m 67.5,31.3012 0,-6.3282 c 0,-1.1718 -0.1719,-1.3441 -1.2809,-1.4218 l 0,-0.266 3.9219,0 0,0.266 c -1.016,0.0777 -1.2191,0.2648 -1.2191,1.2648 l 0,6.2039 c 0,1 0.1871,1.1871 1.2191,1.2653 l 0,0.266 -2.782,0 -3.093,-7.0633 -3.2351,7.0633 -2.7649,0 0,-0.266 c 1.1399,-0.0622 1.3281,-0.234 1.3281,-1.2653 l 0,-5.6719 c 0,-1.4531 -0.2031,-1.7191 -1.3601,-1.7968 l 0,-0.266 3.282,0 0,0.266 c -1.0781,0.0617 -1.3129,0.375 -1.3129,1.7968 l 0,5.6399 3.516,-7.7027 0.2028,0 3.5781,8.016 z"
         style="fill:#000000;fill-opacity:1;fill-rule:nonzero;stroke:none"
         id="path132"
         inkscape:connector-curvature="0" /><path
         d="m 73.191,27.3629 c 0.3602,-0.0309 0.6102,-0.0469 0.9692,-0.0469 1.0937,0 1.8437,0.141 2.4527,0.4852 0.8281,0.4367 1.3441,1.2968 1.3441,2.2187 0,0.593 -0.2031,1.125 -0.5781,1.5313 -0.5629,0.609 -1.7809,1 -3.0937,1 l -3.7032,0 0,-0.266 c 1.0469,-0.109 1.1879,-0.25 1.1879,-1.2653 l 0,-6.0469 c 0,-1.1878 -0.125,-1.3281 -1.1879,-1.4218 l 0,-0.266 3.9219,0 0,0.266 c -1.109,0.0468 -1.3129,0.234 -1.3129,1.2648 l 0,2.5469 z m 0,4.2031 c 0,0.375 0.0942,0.4692 0.4692,0.4692 1.891,0 2.766,-0.6563 2.766,-2.0942 0,-1.359 -0.8282,-2.0621 -2.4383,-2.0621 -0.2809,0 -0.468,0.016 -0.7969,0.0473 l 0,3.6398 z"
         style="fill:#000000;fill-opacity:1;fill-rule:nonzero;stroke:none"
         id="path134"
         inkscape:connector-curvature="0" /><path
         d="m 63.4961,13.9102 c 0.8277,0 1.1559,-0.0313 1.484,-0.1563 0.875,-0.3129 1.4219,-1.109 1.4219,-2.0777 0,-1.1723 -0.8122,-2.07815 -1.843,-2.07815 -0.375,0 -0.657,0.09297 -1.1719,0.42185 -0.4223,0.2653 -0.657,0.359 -0.891,0.359 -0.3281,0 -0.5313,-0.2027 -0.5313,-0.48398 0,-0.5 0.5942,-0.81289 1.5782,-0.81289 1.0781,0 2.1871,0.375 2.8441,0.93787 0.6559,0.5781 1.0149,1.3903 1.0149,2.3281 0,0.718 -0.218,1.375 -0.625,1.8122 -0.2809,0.3128 -0.5469,0.4687 -1.1719,0.7347 0.9687,0.6563 1.3289,1.1871 1.3289,1.9371 0,1.141 -0.907,1.9219 -2.1879,1.9219 -0.7031,0 -1.3121,-0.25 -1.8281,-0.6879 -0.4219,-0.375 -0.625,-0.75 -0.9379,-1.5781 l 0.2187,-0.0617 c 0.5633,1.0148 1.2032,1.484 2.0782,1.484 0.9218,0 1.5468,-0.609 1.5468,-1.5 0,-0.5 -0.2187,-1 -0.5617,-1.359 -0.4223,-0.4223 -0.8133,-0.625 -1.766,-0.9692 l 0,-0.1718 z"
         style="fill:#47007f;fill-opacity:1;fill-rule:nonzero;stroke:none"
         id="path136"
         inkscape:connector-curvature="0" /><path
         d="m 125.855,1.48398 66,0 0,36 -66,0 0,-36 z"
         style="fill:none;stroke:#000000;stroke-width:1;stroke-linecap:butt;stroke-linejoin:miter;stroke-miterlimit:1;stroke-opacity:1;stroke-dasharray:none"
         id="path138"
         inkscape:connector-curvature="0" /><path
         d="m 135.465,24.816 c 0,-1.0621 -0.188,-1.218 -1.36,-1.2648 l 0,-0.266 4.157,0 0,0.266 c -1.141,0.0468 -1.375,0.234 -1.375,1.2648 l 0,6.2039 c 0,1.0313 0.203,1.218 1.375,1.2653 l 0,0.266 -4.157,0 0,-0.266 c 1.188,-0.0622 1.36,-0.2192 1.36,-1.2653 l 0,-6.2039 z"
         style="fill:#000000;fill-opacity:1;fill-rule:nonzero;stroke:none"
         id="path140"
         inkscape:connector-curvature="0" /><path
         d="m 146.957,29.582 -0.141,3.1719 -0.281,0 c -0.094,-0.2969 -0.312,-0.4687 -0.594,-0.4687 -0.125,0 -0.328,0.0468 -0.546,0.125 -0.688,0.2347 -1.391,0.3437 -2.047,0.3437 -1.141,0 -2.313,-0.4379 -3.172,-1.2027 -0.985,-0.875 -1.516,-2.1723 -1.516,-3.7192 0,-1.2968 0.422,-2.5 1.141,-3.2968 0.828,-0.9063 2.125,-1.4532 3.515,-1.4532 1.579,0 2.969,0.6559 3.813,1.7809 l -0.25,0.25 c -1.031,-0.984 -1.953,-1.4059 -3.125,-1.4059 -0.875,0 -1.656,0.2809 -2.266,0.8129 -0.765,0.6871 -1.203,1.9371 -1.203,3.5 0,2.5313 1.297,4.1711 3.328,4.1711 0.797,0 1.532,-0.2961 2.094,-0.859 0.438,-0.4371 0.656,-0.8441 0.922,-1.75 l 0.328,0 z"
         style="fill:#000000;fill-opacity:1;fill-rule:nonzero;stroke:none"
         id="path142"
         inkscape:connector-curvature="0" /><path
         d="m 156.797,31.3012 0,-6.3282 c 0,-1.1718 -0.172,-1.3441 -1.281,-1.4218 l 0,-0.266 3.922,0 0,0.266 c -1.016,0.0777 -1.219,0.2648 -1.219,1.2648 l 0,6.2039 c 0,1 0.187,1.1871 1.219,1.2653 l 0,0.266 -2.782,0 -3.094,-7.0633 -3.234,7.0633 -2.766,0 0,-0.266 c 1.141,-0.0622 1.329,-0.234 1.329,-1.2653 l 0,-5.6719 c 0,-1.4531 -0.203,-1.7191 -1.36,-1.7968 l 0,-0.266 3.281,0 0,0.266 c -1.078,0.0617 -1.312,0.375 -1.312,1.7968 l 0,5.6399 3.516,-7.7027 0.203,0 3.578,8.016 z"
         style="fill:#000000;fill-opacity:1;fill-rule:nonzero;stroke:none"
         id="path144"
         inkscape:connector-curvature="0" /><path
         d="m 162.387,27.3629 c 0.359,-0.0309 0.609,-0.0469 0.968,-0.0469 1.094,0 1.844,0.141 2.454,0.4852 0.828,0.4367 1.343,1.2968 1.343,2.2187 0,0.593 -0.203,1.125 -0.578,1.5313 -0.562,0.609 -1.781,1 -3.094,1 l -3.703,0 0,-0.266 c 1.047,-0.109 1.188,-0.25 1.188,-1.2653 l 0,-6.0469 c 0,-1.1878 -0.125,-1.3281 -1.188,-1.4218 l 0,-0.266 3.922,0 0,0.266 c -1.109,0.0468 -1.312,0.234 -1.312,1.2648 l 0,2.5469 z m 0,4.2031 c 0,0.375 0.093,0.4692 0.468,0.4692 1.891,0 2.766,-0.6563 2.766,-2.0942 0,-1.359 -0.828,-2.0621 -2.437,-2.0621 -0.282,0 -0.469,0.016 -0.797,0.0473 l 0,3.6398 z"
         style="fill:#000000;fill-opacity:1;fill-rule:nonzero;stroke:none"
         id="path146"
         inkscape:connector-curvature="0" /><path
         d="m 173.77,29.582 -1.938,0 0,-0.2031 c 0.453,-0.0469 0.656,-0.1879 0.656,-0.4527 0,-0.141 -0.031,-0.2813 -0.078,-0.4223 l -1.39,-3.625 -1.438,3.5941 c -0.078,0.1872 -0.125,0.3899 -0.125,0.5149 0,0.25 0.156,0.3441 0.656,0.391 l 0,0.2031 -2.75,0 0,-0.2031 c 0.532,-0.0309 0.625,-0.1719 1.282,-1.609 l 1.671,-4.016 c 0.032,-0.0937 0.079,-0.1879 0.11,-0.2969 0.094,-0.25 0.172,-0.375 0.25,-0.375 0.094,0 0.187,0.1879 0.39,0.7032 l 1.797,4.5 c 0.407,0.9527 0.5,1.0468 0.907,1.0937 l 0,0.2031 z"
         style="fill:#000000;fill-opacity:1;fill-rule:nonzero;stroke:none"
         id="path148"
         inkscape:connector-curvature="0" /><path
         d="m 180.098,32.8629 c -1.61,-0.1399 -2.407,-0.4059 -3.438,-1.125 -1.515,-1.0777 -2.344,-2.6719 -2.344,-4.5469 0,-1.218 0.391,-2.4531 0.985,-3.1558 0.531,-0.609 1.297,-0.9532 2.156,-0.9532 1.734,0 2.938,1.3442 2.938,3.266 0,1.7969 -1.016,2.9219 -2.625,2.9219 -0.625,0 -0.907,-0.0937 -1.797,-0.625 0.375,2.109 1.953,3.625 4.14,4 l -0.015,0.218 z m -2.86,-4.234 c 1.203,0 1.907,-1 1.907,-2.75 0,-1.5469 -0.547,-2.391 -1.532,-2.391 -1.234,0 -1.984,1.3133 -1.984,3.4851 0,0.7032 0.109,1.093 0.391,1.3122 0.296,0.2187 0.718,0.3437 1.218,0.3437 z"
         style="fill:#000000;fill-opacity:1;fill-rule:nonzero;stroke:none"
         id="path150"
         inkscape:connector-curvature="0" /><path
         d="m 159.496,13.9102 c 0.828,0 1.156,-0.0313 1.484,-0.1563 0.875,-0.3129 1.422,-1.109 1.422,-2.0777 0,-1.1723 -0.812,-2.07815 -1.843,-2.07815 -0.375,0 -0.657,0.09297 -1.172,0.42185 -0.422,0.2653 -0.657,0.359 -0.891,0.359 -0.328,0 -0.531,-0.2027 -0.531,-0.48398 0,-0.5 0.594,-0.81289 1.578,-0.81289 1.078,0 2.187,0.375 2.844,0.93787 0.656,0.5781 1.015,1.3903 1.015,2.3281 0,0.718 -0.218,1.375 -0.625,1.8122 -0.281,0.3128 -0.547,0.4687 -1.172,0.7347 0.969,0.6563 1.329,1.1871 1.329,1.9371 0,1.141 -0.907,1.9219 -2.188,1.9219 -0.703,0 -1.312,-0.25 -1.828,-0.6879 -0.422,-0.375 -0.625,-0.75 -0.938,-1.5781 l 0.219,-0.0617 c 0.563,1.0148 1.203,1.484 2.078,1.484 0.922,0 1.547,-0.609 1.547,-1.5 0,-0.5 -0.219,-1 -0.562,-1.359 -0.422,-0.4223 -0.813,-0.625 -1.766,-0.9692 l 0,-0.1718 z"
         style="fill:#47007f;fill-opacity:1;fill-rule:nonzero;stroke:none"
         id="path152"
         inkscape:connector-curvature="0" /><path
         d="m 231.453,19.484 c 0,0.993 -0.805,1.8012 -1.801,1.8012 -0.992,0 -1.797,-0.8082 -1.797,-1.8012 0,-0.9918 0.805,-1.8 1.797,-1.8 0.996,0 1.801,0.8082 1.801,1.8"
         style="fill:#000000;fill-opacity:1;fill-rule:nonzero;stroke:none"
         id="path154"
         inkscape:connector-curvature="0" /><path
         d="m 231.453,19.484 c 0,0.993 -0.805,1.8012 -1.801,1.8012 -0.992,0 -1.797,-0.8082 -1.797,-1.8012 0,-0.9918 0.805,-1.8 1.797,-1.8 0.996,0 1.801,0.8082 1.801,1.8"
         style="fill:none;stroke:#000000;stroke-width:1;stroke-linecap:butt;stroke-linejoin:miter;stroke-miterlimit:1;stroke-opacity:1;stroke-dasharray:none"
         id="path156"
         inkscape:connector-curvature="0" /><path
         d="m 192.242,19.484 25.41,0"
         style="fill:none;stroke:#000000;stroke-width:1;stroke-linecap:butt;stroke-linejoin:miter;stroke-miterlimit:1;stroke-opacity:1;stroke-dasharray:none"
         id="path158"
         inkscape:connector-curvature="0" /><path
         d="m 217.824,22.984 10,-3.5 -10,-3.5"
         style="fill:#000000;fill-opacity:1;fill-rule:nonzero;stroke:none"
         id="path160"
         inkscape:connector-curvature="0" /><path
         d="m 217.824,22.984 10,-3.5 -10,-3.5 0,7 z"
         style="fill:none;stroke:#000000;stroke-width:1;stroke-linecap:butt;stroke-linejoin:miter;stroke-miterlimit:1;stroke-opacity:1;stroke-dasharray:none"
         id="path162"
         inkscape:connector-curvature="0" /><path
         d="m 90.0352,19.484 25.6678,0"
         style="fill:none;stroke:#000000;stroke-width:1;stroke-linecap:butt;stroke-linejoin:miter;stroke-miterlimit:1;stroke-opacity:1;stroke-dasharray:none"
         id="path164"
         inkscape:connector-curvature="0" /><path
         d="m 115.785,22.984 10,-3.5 -10,-3.5"
         style="fill:#000000;fill-opacity:1;fill-rule:nonzero;stroke:none"
         id="path166"
         inkscape:connector-curvature="0" /><path
         d="m 115.785,22.984 10,-3.5 -10,-3.5 0,7 z"
         style="fill:none;stroke:#000000;stroke-width:1;stroke-linecap:butt;stroke-linejoin:miter;stroke-miterlimit:1;stroke-opacity:1;stroke-dasharray:none"
         id="path168"
         inkscape:connector-curvature="0" /><path
         d="m 4.10195,152.594 c 0,0.992 -0.80898,1.801 -1.80078,1.801 -0.99609,0 -1.80117,-0.809 -1.80117,-1.801 0,-0.992 0.80508,-1.801 1.80117,-1.801 0.9918,0 1.80078,0.809 1.80078,1.801"
         style="fill:#000000;fill-opacity:1;fill-rule:nonzero;stroke:none"
         id="path170"
         inkscape:connector-curvature="0" /><path
         d="m 4.10195,152.594 c 0,0.992 -0.80898,1.801 -1.80078,1.801 -0.99609,0 -1.80117,-0.809 -1.80117,-1.801 0,-0.992 0.80508,-1.801 1.80117,-1.801 0.9918,0 1.80078,0.809 1.80078,1.801"
         style="fill:none;stroke:#000000;stroke-width:1;stroke-linecap:butt;stroke-linejoin:miter;stroke-miterlimit:1;stroke-opacity:1;stroke-dasharray:none"
         id="path172"
         inkscape:connector-curvature="0" /><path
         d="m 4.39102,152.594 25.48008,0"
         style="fill:none;stroke:#000000;stroke-width:1;stroke-linecap:butt;stroke-linejoin:miter;stroke-miterlimit:1;stroke-opacity:1;stroke-dasharray:none"
         id="path174"
         inkscape:connector-curvature="0" /><path
         d="m 30.0512,156.094 10,-3.5 -10,-3.5"
         style="fill:#000000;fill-opacity:1;fill-rule:nonzero;stroke:none"
         id="path176"
         inkscape:connector-curvature="0" /><path
         d="m 30.0512,156.094 10,-3.5 -10,-3.5 0,7 z"
         style="fill:none;stroke:#000000;stroke-width:1;stroke-linecap:butt;stroke-linejoin:miter;stroke-miterlimit:1;stroke-opacity:1;stroke-dasharray:none"
         id="path178"
         inkscape:connector-curvature="0" /><path
         d="m 296.102,152.594 24.867,0 0,-31.047 -297.328,0 0,-31.3591 13.8711,0"
         style="fill:none;stroke:#000000;stroke-width:1;stroke-linecap:butt;stroke-linejoin:miter;stroke-miterlimit:4;stroke-opacity:1;stroke-dasharray:none"
         id="path180"
         inkscape:connector-curvature="0" /><path
         d="m 361.789,89.8707 15.871,0 0,-37.6789 -356.433,0 0,-33.1719 14.4761,0"
         style="fill:none;stroke:#000000;stroke-width:1;stroke-linecap:butt;stroke-linejoin:miter;stroke-miterlimit:4;stroke-opacity:1;stroke-dasharray:none"
         id="path182"
         inkscape:connector-curvature="0" /><path
         d="m 28.160809,93.507908 10,-3.5 -10,-3.5 0,7 z"
         style="fill:#000000;stroke:#000000;stroke-width:1;stroke-linecap:butt;stroke-linejoin:miter;stroke-miterlimit:1;stroke-opacity:1;stroke-dasharray:none;fill-opacity:1"
         id="path108-7"
         inkscape:connector-curvature="0" /><path
         d="m 25.453803,22.449034 10,-3.5 -10,-3.5 0,7 z"
         style="fill:#000000;fill-opacity:1;stroke:#000000;stroke-width:1;stroke-linecap:butt;stroke-linejoin:miter;stroke-miterlimit:1;stroke-opacity:1;stroke-dasharray:none"
         id="path108-7-9"
         inkscape:connector-curvature="0" /></g></g></svg>